<svg width="40" height="40" viewBox="0 0 40 40" fill="none" xmlns="http://www.w3.org/2000/svg">
<path d="M0 19.2C0 12.4794 0 9.11905 1.30792 6.55211C2.4584 4.29417 4.29417 2.4584 6.55211 1.30792C9.11905 0 12.4794 0 19.2 0H20.8C27.5206 0 30.8809 0 33.4479 1.30792C35.7058 2.4584 37.5416 4.29417 38.6921 6.55211C40 9.11905 40 12.4794 40 19.2V20.8C40 27.5206 40 30.8809 38.6921 33.4479C37.5416 35.7058 35.7058 37.5416 33.4479 38.6921C30.8809 40 27.5206 40 20.8 40H19.2C12.4794 40 9.11905 40 6.55211 38.6921C4.29417 37.5416 2.4584 35.7058 1.30792 33.4479C0 30.8809 0 27.5206 0 20.8V19.2Z" fill="#8E8E93"/>
<path d="M10.6667 27H29.3333C29.975 27 30.5 26.475 30.5 25.8333C30.5 25.1917 29.975 24.6667 29.3333 24.6667H10.6667C10.025 24.6667 9.5 25.1917 9.5 25.8333C9.5 26.475 10.025 27 10.6667 27ZM10.6667 21.1667H29.3333C29.975 21.1667 30.5 20.6417 30.5 20C30.5 19.3583 29.975 18.8333 29.3333 18.8333H10.6667C10.025 18.8333 9.5 19.3583 9.5 20C9.5 20.6417 10.025 21.1667 10.6667 21.1667ZM9.5 14.1667C9.5 14.8083 10.025 15.3333 10.6667 15.3333H29.3333C29.975 15.3333 30.5 14.8083 30.5 14.1667C30.5 13.525 29.975 13 29.3333 13H10.6667C10.025 13 9.5 13.525 9.5 14.1667Z" fill="white"/>
</svg>
